<?xml version="1.0" standalone="no"?>
<!DOCTYPE svg PUBLIC "-//W3C//DTD SVG 20010904//EN"
 "http://www.w3.org/TR/2001/REC-SVG-20010904/DTD/svg10.dtd">
<svg version="1.0" xmlns="http://www.w3.org/2000/svg"
 width="300.000000pt" height="286.000000pt" viewBox="0 0 300.000000 286.000000"
 preserveAspectRatio="xMidYMid meet">
<metadata>
Created by potrace 1.10, written by Peter Selinger 2001-2011
</metadata>
<g transform="translate(0.000000,286.000000) scale(0.100000,-0.100000)"
fill="#dedede" stroke="none">
<path d="M1211 2616 c-19 -14 -38 -31 -43 -38 -4 -7 -8 -9 -8 -5 0 5 -12 -6
-27 -25 -16 -18 -33 -37 -40 -43 -19 -16 -96 -119 -126 -170 -17 -28 -32 -43
-39 -39 -7 4 -8 3 -4 -4 6 -10 -28 -87 -45 -102 -12 -11 -38 -73 -34 -80 3 -5
1 -10 -3 -12 -10 -3 -62 -129 -62 -147 0 -6 -4 -19 -9 -29 -29 -56 -67 -314
-66 -437 2 -132 16 -274 27 -281 4 -3 6 -9 3 -14 -5 -9 11 -79 38 -160 8 -25
22 -70 31 -101 10 -31 24 -65 31 -75 8 -11 15 -24 15 -31 0 -22 63 -147 119
-238 85 -138 215 -310 295 -390 63 -63 116 -105 116 -92 0 2 -31 38 -70 78
-38 41 -69 79 -69 84 0 6 27 -19 60 -55 33 -36 57 -59 54 -52 -14 27 -108 121
-116 117 -8 -5 -119 125 -119 140 0 5 10 0 23 -11 l22 -19 -19 22 c-10 13 -22
20 -27 18 -7 -5 -49 46 -49 61 0 4 10 -1 23 -12 22 -19 22 -19 6 1 -9 11 -37
54 -63 95 -25 41 -46 71 -46 66 0 -5 18 -38 41 -73 22 -36 38 -67 36 -69 -3
-3 -22 23 -44 58 -319 506 -370 1066 -141 1558 74 161 164 291 291 423 61 64
79 77 98 73 13 -3 62 -7 109 -11 264 -18 723 -107 1113 -215 47 -14 48 -30 2
-30 -66 0 -281 -114 -440 -234 -104 -78 -267 -242 -344 -346 -57 -77 -109
-159 -66 -105 9 11 43 56 76 100 71 94 197 225 288 299 66 54 195 142 241 166
38 20 23 8 -85 -65 -202 -136 -364 -296 -487 -480 -119 -178 -231 -437 -287
-665 -56 -227 -76 -541 -46 -719 15 -92 38 -171 49 -171 7 0 -1 75 -19 175
-15 83 -17 128 -11 260 9 215 22 323 47 401 5 17 12 42 14 55 3 13 7 36 11 51
3 15 5 30 5 33 -1 3 5 18 14 35 8 16 15 36 15 44 0 8 5 27 12 43 6 15 11 31
10 35 -1 5 3 8 10 8 6 0 9 3 6 6 -9 9 118 286 147 321 26 32 32 41 54 78 14
22 46 66 73 97 26 31 48 59 48 61 0 4 56 59 187 184 34 33 193 145 266 189 34
20 69 43 77 49 8 7 38 21 65 31 67 24 106 46 119 67 9 14 5 22 -18 42 -16 14
-36 25 -45 25 -9 0 -45 9 -81 20 -36 11 -85 25 -110 30 -76 16 -83 17 -150 35
-36 10 -75 19 -87 20 -11 2 -30 6 -41 9 -11 4 -33 9 -48 12 -16 2 -78 13 -139
24 -191 34 -319 50 -505 65 -69 5 -78 3 -109 -19z"/>
<path d="M1685 2433 c-164 -21 -326 -135 -440 -312 -50 -77 -125 -230 -125
-252 0 -8 13 16 29 52 48 113 123 228 203 313 42 44 77 79 78 76 0 -3 -26 -32
-58 -65 -200 -208 -316 -525 -329 -901 -10 -302 42 -573 166 -859 34 -78 42
-69 11 13 -50 130 -80 482 -61 698 20 228 64 397 150 579 113 239 301 456 511
591 50 32 78 55 69 58 -21 7 -169 13 -204 9z m75 -51 c0 -12 -39 -45 -71 -61
-14 -7 -64 -52 -110 -100 -111 -116 -118 -124 -174 -211 -27 -41 -54 -78 -60
-82 -6 -5 -6 -8 0 -8 6 0 5 -3 -1 -8 -10 -6 -47 -69 -49 -82 0 -3 -6 -15 -13
-27 -48 -86 -119 -306 -128 -398 -2 -22 -8 -62 -13 -90 -16 -83 -21 -144 -23
-278 -3 -172 -26 -105 -44 123 -3 41 -7 81 -9 87 -5 16 17 281 25 303 2 3 2 8
1 12 0 4 8 42 19 85 11 43 22 87 25 98 5 27 38 119 65 185 55 130 210 331 290
377 75 42 87 48 135 65 52 18 135 24 135 10z"/>
<path d="M1985 1866 c-14 -14 -26 -32 -26 -41 -3 -28 -4 -33 -11 -41 -22 -21
2 -70 85 -174 17 -20 14 -46 -3 -41 -8 1 -44 3 -79 2 -54 -1 -73 -6 -112 -32
-26 -16 -60 -46 -74 -65 -27 -36 -64 -120 -70 -160 -3 -24 40 -104 57 -104 5
0 8 -7 4 -15 -3 -8 -2 -15 3 -15 27 0 -2 -123 -45 -192 -31 -49 -31 -81 1 -98
21 -11 32 -11 67 1 24 8 44 13 45 12 4 -4 153 53 193 73 42 20 80 53 80 68 0
6 -14 31 -31 56 -17 25 -25 46 -19 48 5 2 8 7 5 12 -10 16 34 -2 51 -21 18
-20 50 -24 73 -10 9 6 22 6 33 0 24 -13 48 4 82 57 15 24 31 44 35 44 7 0 31
57 30 73 0 4 7 15 16 23 8 9 15 21 15 28 0 12 -64 109 -93 142 -34 38 -106
145 -209 309 -17 28 -42 59 -55 68 -22 17 -24 17 -48 -7z m105 -126 c86 -138
182 -274 241 -343 l41 -48 -24 -18 c-22 -18 -113 -141 -104 -141 2 0 26 29 52
65 26 36 50 63 52 60 2 -2 -21 -38 -51 -80 -31 -41 -58 -81 -60 -88 -8 -18
-28 14 -23 36 7 28 -18 20 -37 -13 -10 -16 -22 -30 -27 -30 -5 0 -22 14 -38
30 -34 34 -57 38 -84 13 -28 -25 -23 -70 13 -104 17 -16 28 -33 24 -39 -27
-43 -355 -159 -355 -125 0 2 18 32 39 65 50 78 67 147 46 196 -8 19 -14 38
-14 42 3 19 -2 32 -12 32 -8 0 -7 -6 2 -17 13 -16 12 -17 -3 -4 -10 7 -15 17
-12 22 3 5 -2 12 -10 15 -25 9 -19 62 12 129 50 105 128 153 225 141 72 -10
113 -35 191 -115 38 -40 70 -70 73 -68 4 4 -61 122 -79 144 -6 7 -14 11 -18 8
-4 -3 -15 8 -24 23 l-17 27 20 -24 c25 -28 27 -20 5 14 -9 14 -20 23 -24 20
-4 -3 -14 3 -21 13 -13 15 -12 16 4 3 9 -7 17 -9 17 -3 0 13 -25 33 -32 26 -3
-3 -9 0 -14 7 -4 8 -3 10 4 5 7 -4 12 -3 12 2 0 13 -25 33 -32 26 -3 -3 -16
10 -28 28 l-22 33 26 -30 c14 -16 26 -26 26 -21 0 16 -51 77 -60 71 -16 -10
-18 23 -5 61 8 22 14 47 15 57 0 9 3 17 8 16 4 0 41 -54 82 -119z"/>
<path d="M1835 1460 c-10 -11 -13 -20 -8 -20 13 0 38 29 31 35 -3 3 -13 -4
-23 -15z"/>
<path d="M1802 1409 c-19 -30 -8 -34 12 -4 9 14 13 25 9 25 -5 0 -14 -9 -21
-21z"/>
<path d="M1767 1328 c-9 -31 -2 -33 11 -3 6 14 8 25 3 25 -5 0 -11 -10 -14
-22z"/>
<path d="M2012 1208 c-19 -19 -14 -33 6 -15 25 23 63 21 98 -4 l29 -21 -28 26
c-30 28 -84 35 -105 14z"/>
<path d="M1834 1094 c-4 -10 -17 -46 -30 -79 l-23 -60 29 34 c16 18 32 51 35
73 7 42 0 63 -11 32z"/>
<path d="M1984 1081 c2 -14 9 -27 17 -29 11 -3 12 -2 1 6 -8 5 -13 12 -12 16
1 4 -1 12 -4 19 -2 6 -3 1 -2 -12z"/>
<path d="M1865 965 c-25 -12 -26 -14 -5 -9 28 7 60 23 45 23 -5 0 -23 -6 -40
-14z"/>
<path d="M1770 938 c-19 -6 -30 -12 -24 -14 5 -3 28 2 50 10 45 17 26 19 -26
4z"/>
<path d="M1594 1595 c-14 -25 -25 -48 -23 -50 2 -2 16 19 32 46 34 62 27 65
-9 4z"/>
<path d="M1209 423 c15 -30 30 -38 44 -23 9 10 9 11 -2 5 -9 -5 -20 0 -33 16
-18 22 -18 22 -9 2z"/>
<path d="M1194 337 c21 -26 40 -47 43 -47 7 0 -56 78 -70 87 -6 4 6 -14 27
-40z"/>
</g>
</svg>
